<mxfile host="app.diagrams.net" modified="2024-06-11T07:54:05.192Z" agent="Mozilla/5.0 (Windows NT 10.0; Win64; x64) AppleWebKit/537.36 (KHTML, like Gecko) Chrome/125.0.0.0 Safari/537.36" etag="B_7TsxYurYOJ2C7vefIN" version="24.3.1" type="device">
  <diagram name="Page-1" id="79HrkNUcJ3JHD_pRi5_T">
    <mxGraphModel dx="1867" dy="780" grid="1" gridSize="10" guides="1" tooltips="1" connect="1" arrows="1" fold="1" page="1" pageScale="1" pageWidth="850" pageHeight="1100" math="0" shadow="0">
      <root>
        <mxCell id="0" />
        <mxCell id="1" parent="0" />
        <mxCell id="2Vbj4L77X7BfrputcoRu-93" value="" style="group" vertex="1" connectable="0" parent="1">
          <mxGeometry x="20" y="235" width="785" height="675" as="geometry" />
        </mxCell>
        <mxCell id="2Vbj4L77X7BfrputcoRu-3" value="" style="edgeStyle=orthogonalEdgeStyle;rounded=0;orthogonalLoop=1;jettySize=auto;html=1;" edge="1" parent="2Vbj4L77X7BfrputcoRu-93" source="2Vbj4L77X7BfrputcoRu-1" target="2Vbj4L77X7BfrputcoRu-2">
          <mxGeometry relative="1" as="geometry" />
        </mxCell>
        <mxCell id="2Vbj4L77X7BfrputcoRu-1" value="START" style="ellipse;whiteSpace=wrap;html=1;" vertex="1" parent="2Vbj4L77X7BfrputcoRu-93">
          <mxGeometry y="-50" width="120" height="80" as="geometry" />
        </mxCell>
        <mxCell id="2Vbj4L77X7BfrputcoRu-2" value="DO YOU HAVE AN ACCOUNT ?" style="rhombus;whiteSpace=wrap;html=1;" vertex="1" parent="2Vbj4L77X7BfrputcoRu-93">
          <mxGeometry x="20" y="60" width="80" height="80" as="geometry" />
        </mxCell>
        <mxCell id="2Vbj4L77X7BfrputcoRu-67" value="" style="edgeStyle=orthogonalEdgeStyle;rounded=0;orthogonalLoop=1;jettySize=auto;html=1;" edge="1" parent="2Vbj4L77X7BfrputcoRu-93" source="2Vbj4L77X7BfrputcoRu-4" target="2Vbj4L77X7BfrputcoRu-66">
          <mxGeometry relative="1" as="geometry" />
        </mxCell>
        <mxCell id="2Vbj4L77X7BfrputcoRu-4" value="No. Batch, Password" style="shape=parallelogram;perimeter=parallelogramPerimeter;whiteSpace=wrap;html=1;fixedSize=1;" vertex="1" parent="2Vbj4L77X7BfrputcoRu-93">
          <mxGeometry x="345" y="70" width="140" height="60" as="geometry" />
        </mxCell>
        <mxCell id="2Vbj4L77X7BfrputcoRu-34" value="" style="edgeStyle=orthogonalEdgeStyle;rounded=0;orthogonalLoop=1;jettySize=auto;html=1;" edge="1" parent="2Vbj4L77X7BfrputcoRu-93" source="2Vbj4L77X7BfrputcoRu-46" target="2Vbj4L77X7BfrputcoRu-4">
          <mxGeometry relative="1" as="geometry">
            <mxPoint x="305" y="150" as="sourcePoint" />
          </mxGeometry>
        </mxCell>
        <mxCell id="2Vbj4L77X7BfrputcoRu-128" style="edgeStyle=orthogonalEdgeStyle;rounded=0;orthogonalLoop=1;jettySize=auto;html=1;" edge="1" parent="2Vbj4L77X7BfrputcoRu-93" source="2Vbj4L77X7BfrputcoRu-39" target="2Vbj4L77X7BfrputcoRu-46">
          <mxGeometry relative="1" as="geometry" />
        </mxCell>
        <mxCell id="2Vbj4L77X7BfrputcoRu-39" value="No Batch, Email, Password" style="shape=parallelogram;perimeter=parallelogramPerimeter;whiteSpace=wrap;html=1;fixedSize=1;" vertex="1" parent="2Vbj4L77X7BfrputcoRu-93">
          <mxGeometry y="340" width="120" height="60" as="geometry" />
        </mxCell>
        <mxCell id="2Vbj4L77X7BfrputcoRu-47" value="" style="edgeStyle=orthogonalEdgeStyle;rounded=0;orthogonalLoop=1;jettySize=auto;html=1;" edge="1" parent="2Vbj4L77X7BfrputcoRu-93" source="2Vbj4L77X7BfrputcoRu-2" target="2Vbj4L77X7BfrputcoRu-46">
          <mxGeometry relative="1" as="geometry">
            <mxPoint x="100" y="150" as="sourcePoint" />
            <mxPoint x="185" y="150" as="targetPoint" />
          </mxGeometry>
        </mxCell>
        <mxCell id="2Vbj4L77X7BfrputcoRu-48" value="YES" style="edgeLabel;html=1;align=center;verticalAlign=middle;resizable=0;points=[];" vertex="1" connectable="0" parent="2Vbj4L77X7BfrputcoRu-47">
          <mxGeometry x="-0.1059" relative="1" as="geometry">
            <mxPoint as="offset" />
          </mxGeometry>
        </mxCell>
        <mxCell id="2Vbj4L77X7BfrputcoRu-46" value="LOGIN" style="rounded=0;whiteSpace=wrap;html=1;" vertex="1" parent="2Vbj4L77X7BfrputcoRu-93">
          <mxGeometry x="190" y="70" width="120" height="60" as="geometry" />
        </mxCell>
        <mxCell id="2Vbj4L77X7BfrputcoRu-52" value="" style="edgeStyle=orthogonalEdgeStyle;rounded=0;orthogonalLoop=1;jettySize=auto;html=1;" edge="1" parent="2Vbj4L77X7BfrputcoRu-93" source="2Vbj4L77X7BfrputcoRu-2" target="2Vbj4L77X7BfrputcoRu-51">
          <mxGeometry relative="1" as="geometry">
            <mxPoint x="60" y="190" as="sourcePoint" />
            <mxPoint x="60" y="250" as="targetPoint" />
          </mxGeometry>
        </mxCell>
        <mxCell id="2Vbj4L77X7BfrputcoRu-53" value="NO" style="edgeLabel;html=1;align=center;verticalAlign=middle;resizable=0;points=[];" vertex="1" connectable="0" parent="2Vbj4L77X7BfrputcoRu-52">
          <mxGeometry x="-0.4333" y="-2" relative="1" as="geometry">
            <mxPoint as="offset" />
          </mxGeometry>
        </mxCell>
        <mxCell id="2Vbj4L77X7BfrputcoRu-55" value="" style="edgeStyle=orthogonalEdgeStyle;rounded=0;orthogonalLoop=1;jettySize=auto;html=1;" edge="1" parent="2Vbj4L77X7BfrputcoRu-93" source="2Vbj4L77X7BfrputcoRu-51" target="2Vbj4L77X7BfrputcoRu-39">
          <mxGeometry relative="1" as="geometry" />
        </mxCell>
        <mxCell id="2Vbj4L77X7BfrputcoRu-51" value="SIGN IN" style="rounded=0;whiteSpace=wrap;html=1;" vertex="1" parent="2Vbj4L77X7BfrputcoRu-93">
          <mxGeometry y="230" width="120" height="60" as="geometry" />
        </mxCell>
        <mxCell id="2Vbj4L77X7BfrputcoRu-131" style="edgeStyle=orthogonalEdgeStyle;rounded=0;orthogonalLoop=1;jettySize=auto;html=1;" edge="1" parent="2Vbj4L77X7BfrputcoRu-93" source="2Vbj4L77X7BfrputcoRu-57" target="2Vbj4L77X7BfrputcoRu-75">
          <mxGeometry relative="1" as="geometry" />
        </mxCell>
        <mxCell id="2Vbj4L77X7BfrputcoRu-57" value="Corect Password" style="rhombus;whiteSpace=wrap;html=1;" vertex="1" parent="2Vbj4L77X7BfrputcoRu-93">
          <mxGeometry x="520" y="170" width="80" height="80" as="geometry" />
        </mxCell>
        <mxCell id="2Vbj4L77X7BfrputcoRu-130" value="" style="edgeStyle=orthogonalEdgeStyle;rounded=0;orthogonalLoop=1;jettySize=auto;html=1;" edge="1" parent="2Vbj4L77X7BfrputcoRu-93" source="2Vbj4L77X7BfrputcoRu-66" target="2Vbj4L77X7BfrputcoRu-57">
          <mxGeometry relative="1" as="geometry" />
        </mxCell>
        <mxCell id="2Vbj4L77X7BfrputcoRu-66" value="User DB" style="shape=cylinder3;whiteSpace=wrap;html=1;boundedLbl=1;backgroundOutline=1;size=15;" vertex="1" parent="2Vbj4L77X7BfrputcoRu-93">
          <mxGeometry x="530" y="60" width="60" height="80" as="geometry" />
        </mxCell>
        <mxCell id="2Vbj4L77X7BfrputcoRu-86" style="edgeStyle=orthogonalEdgeStyle;rounded=0;orthogonalLoop=1;jettySize=auto;html=1;" edge="1" parent="2Vbj4L77X7BfrputcoRu-93" source="2Vbj4L77X7BfrputcoRu-75" target="2Vbj4L77X7BfrputcoRu-85">
          <mxGeometry relative="1" as="geometry" />
        </mxCell>
        <mxCell id="2Vbj4L77X7BfrputcoRu-141" value="Admin&lt;div&gt;&lt;br&gt;&lt;/div&gt;" style="edgeLabel;html=1;align=center;verticalAlign=middle;resizable=0;points=[];" vertex="1" connectable="0" parent="2Vbj4L77X7BfrputcoRu-86">
          <mxGeometry x="-0.3333" y="3" relative="1" as="geometry">
            <mxPoint x="-5" y="7" as="offset" />
          </mxGeometry>
        </mxCell>
        <mxCell id="2Vbj4L77X7BfrputcoRu-91" style="edgeStyle=orthogonalEdgeStyle;rounded=0;orthogonalLoop=1;jettySize=auto;html=1;entryX=0.5;entryY=0;entryDx=0;entryDy=0;" edge="1" parent="2Vbj4L77X7BfrputcoRu-93" source="2Vbj4L77X7BfrputcoRu-75" target="2Vbj4L77X7BfrputcoRu-90">
          <mxGeometry relative="1" as="geometry" />
        </mxCell>
        <mxCell id="2Vbj4L77X7BfrputcoRu-92" value="Client" style="edgeLabel;html=1;align=center;verticalAlign=middle;resizable=0;points=[];" vertex="1" connectable="0" parent="2Vbj4L77X7BfrputcoRu-91">
          <mxGeometry x="0.5941" y="-4" relative="1" as="geometry">
            <mxPoint as="offset" />
          </mxGeometry>
        </mxCell>
        <mxCell id="2Vbj4L77X7BfrputcoRu-75" value="What Batch ?" style="rhombus;whiteSpace=wrap;html=1;" vertex="1" parent="2Vbj4L77X7BfrputcoRu-93">
          <mxGeometry x="520" y="280" width="80" height="80" as="geometry" />
        </mxCell>
        <mxCell id="2Vbj4L77X7BfrputcoRu-114" style="edgeStyle=orthogonalEdgeStyle;rounded=0;orthogonalLoop=1;jettySize=auto;html=1;" edge="1" parent="2Vbj4L77X7BfrputcoRu-93" source="2Vbj4L77X7BfrputcoRu-85" target="2Vbj4L77X7BfrputcoRu-115">
          <mxGeometry relative="1" as="geometry">
            <mxPoint x="480" y="500" as="targetPoint" />
            <Array as="points">
              <mxPoint x="560" y="510" />
              <mxPoint x="508" y="510" />
            </Array>
          </mxGeometry>
        </mxCell>
        <mxCell id="2Vbj4L77X7BfrputcoRu-85" value="Fitur-fitur Admin" style="rounded=0;whiteSpace=wrap;html=1;shape=parallelogram;perimeter=parallelogramPerimeter;fixedSize=1;" vertex="1" parent="2Vbj4L77X7BfrputcoRu-93">
          <mxGeometry x="500" y="430" width="120" height="60" as="geometry" />
        </mxCell>
        <mxCell id="2Vbj4L77X7BfrputcoRu-108" value="" style="edgeStyle=orthogonalEdgeStyle;rounded=0;orthogonalLoop=1;jettySize=auto;html=1;" edge="1" parent="2Vbj4L77X7BfrputcoRu-93" source="2Vbj4L77X7BfrputcoRu-90" target="2Vbj4L77X7BfrputcoRu-107">
          <mxGeometry relative="1" as="geometry" />
        </mxCell>
        <mxCell id="2Vbj4L77X7BfrputcoRu-90" value="Fitur-fitur client" style="rounded=0;whiteSpace=wrap;html=1;shape=parallelogram;perimeter=parallelogramPerimeter;fixedSize=1;" vertex="1" parent="2Vbj4L77X7BfrputcoRu-93">
          <mxGeometry x="290" y="390" width="120" height="60" as="geometry" />
        </mxCell>
        <mxCell id="2Vbj4L77X7BfrputcoRu-107" value="Fitur Message admin" style="verticalLabelPosition=middle;verticalAlign=middle;html=1;shape=trapezoid;perimeter=trapezoidPerimeter;whiteSpace=wrap;size=0.23;arcSize=10;flipV=1;labelPosition=center;align=center;" vertex="1" parent="2Vbj4L77X7BfrputcoRu-93">
          <mxGeometry x="300" y="510" width="100" height="60" as="geometry" />
        </mxCell>
        <mxCell id="2Vbj4L77X7BfrputcoRu-115" value="Message dari client" style="strokeWidth=2;html=1;shape=mxgraph.flowchart.document2;whiteSpace=wrap;size=0.25;" vertex="1" parent="2Vbj4L77X7BfrputcoRu-93">
          <mxGeometry x="460" y="605" width="100" height="60" as="geometry" />
        </mxCell>
        <mxCell id="2Vbj4L77X7BfrputcoRu-79" value="Fitur-Fitur IoT User" style="whiteSpace=wrap;html=1;shape=parallelogram;perimeter=parallelogramPerimeter;fixedSize=1;" vertex="1" parent="2Vbj4L77X7BfrputcoRu-93">
          <mxGeometry x="690" y="340" width="120" height="60" as="geometry" />
        </mxCell>
        <mxCell id="2Vbj4L77X7BfrputcoRu-112" style="edgeStyle=orthogonalEdgeStyle;rounded=0;orthogonalLoop=1;jettySize=auto;html=1;entryX=0.5;entryY=0;entryDx=0;entryDy=0;" edge="1" parent="2Vbj4L77X7BfrputcoRu-93" source="2Vbj4L77X7BfrputcoRu-75" target="2Vbj4L77X7BfrputcoRu-79">
          <mxGeometry relative="1" as="geometry" />
        </mxCell>
        <mxCell id="2Vbj4L77X7BfrputcoRu-113" value="IoT Engeneer" style="edgeLabel;html=1;align=center;verticalAlign=middle;resizable=0;points=[];" vertex="1" connectable="0" parent="2Vbj4L77X7BfrputcoRu-112">
          <mxGeometry x="-0.1582" y="-1" relative="1" as="geometry">
            <mxPoint as="offset" />
          </mxGeometry>
        </mxCell>
        <mxCell id="2Vbj4L77X7BfrputcoRu-97" value="Stok Komponen IoT" style="strokeWidth=2;html=1;shape=mxgraph.flowchart.document2;whiteSpace=wrap;size=0.25;" vertex="1" parent="2Vbj4L77X7BfrputcoRu-93">
          <mxGeometry x="700" y="450" width="100" height="60" as="geometry" />
        </mxCell>
        <mxCell id="2Vbj4L77X7BfrputcoRu-98" value="" style="edgeStyle=orthogonalEdgeStyle;rounded=0;orthogonalLoop=1;jettySize=auto;html=1;" edge="1" parent="2Vbj4L77X7BfrputcoRu-93" source="2Vbj4L77X7BfrputcoRu-79" target="2Vbj4L77X7BfrputcoRu-97">
          <mxGeometry relative="1" as="geometry" />
        </mxCell>
        <mxCell id="2Vbj4L77X7BfrputcoRu-123" style="edgeStyle=orthogonalEdgeStyle;rounded=0;orthogonalLoop=1;jettySize=auto;html=1;entryX=-0.006;entryY=0.652;entryDx=0;entryDy=0;entryPerimeter=0;" edge="1" parent="2Vbj4L77X7BfrputcoRu-93" source="2Vbj4L77X7BfrputcoRu-85" target="2Vbj4L77X7BfrputcoRu-97">
          <mxGeometry relative="1" as="geometry" />
        </mxCell>
        <mxCell id="2Vbj4L77X7BfrputcoRu-126" value="Data-data User" style="strokeWidth=2;html=1;shape=mxgraph.flowchart.document2;whiteSpace=wrap;size=0.25;" vertex="1" parent="2Vbj4L77X7BfrputcoRu-93">
          <mxGeometry x="590" y="605" width="100" height="60" as="geometry" />
        </mxCell>
        <mxCell id="2Vbj4L77X7BfrputcoRu-125" style="edgeStyle=orthogonalEdgeStyle;rounded=0;orthogonalLoop=1;jettySize=auto;html=1;" edge="1" parent="2Vbj4L77X7BfrputcoRu-93" source="2Vbj4L77X7BfrputcoRu-85" target="2Vbj4L77X7BfrputcoRu-126">
          <mxGeometry relative="1" as="geometry">
            <mxPoint x="602.5" y="470" as="targetPoint" />
            <Array as="points">
              <mxPoint x="560.5" y="510" />
              <mxPoint x="657.5" y="510" />
            </Array>
          </mxGeometry>
        </mxCell>
        <mxCell id="2Vbj4L77X7BfrputcoRu-134" style="edgeStyle=orthogonalEdgeStyle;rounded=0;orthogonalLoop=1;jettySize=auto;html=1;entryX=1;entryY=0.5;entryDx=0;entryDy=0;entryPerimeter=0;" edge="1" parent="2Vbj4L77X7BfrputcoRu-93" source="2Vbj4L77X7BfrputcoRu-66" target="2Vbj4L77X7BfrputcoRu-126">
          <mxGeometry relative="1" as="geometry">
            <mxPoint x="716" y="585" as="targetPoint" />
            <mxPoint x="616" y="100" as="sourcePoint" />
            <Array as="points">
              <mxPoint x="808" y="100" />
              <mxPoint x="808" y="625" />
            </Array>
          </mxGeometry>
        </mxCell>
        <mxCell id="2Vbj4L77X7BfrputcoRu-117" value="Message DB" style="shape=cylinder3;whiteSpace=wrap;html=1;boundedLbl=1;backgroundOutline=1;size=15;" vertex="1" parent="2Vbj4L77X7BfrputcoRu-93">
          <mxGeometry x="320" y="595" width="60" height="80" as="geometry" />
        </mxCell>
        <mxCell id="2Vbj4L77X7BfrputcoRu-135" value="" style="edgeStyle=orthogonalEdgeStyle;rounded=0;orthogonalLoop=1;jettySize=auto;html=1;" edge="1" parent="2Vbj4L77X7BfrputcoRu-93" source="2Vbj4L77X7BfrputcoRu-107" target="2Vbj4L77X7BfrputcoRu-117">
          <mxGeometry relative="1" as="geometry" />
        </mxCell>
        <mxCell id="2Vbj4L77X7BfrputcoRu-136" value="" style="edgeStyle=orthogonalEdgeStyle;rounded=0;orthogonalLoop=1;jettySize=auto;html=1;" edge="1" parent="2Vbj4L77X7BfrputcoRu-93" source="2Vbj4L77X7BfrputcoRu-117" target="2Vbj4L77X7BfrputcoRu-115">
          <mxGeometry relative="1" as="geometry">
            <Array as="points">
              <mxPoint x="510" y="625" />
            </Array>
          </mxGeometry>
        </mxCell>
      </root>
    </mxGraphModel>
  </diagram>
</mxfile>
